<svg aria-hidden="true" style="position: absolute; width: 0; height: 0; overflow: hidden;" version="1.1" xmlns="http://www.w3.org/2000/svg" xmlns:xlink="http://www.w3.org/1999/xlink">
<defs>
<symbol id="paw-logo" viewBox="0 0 32 32">
<path fill="#ff868e" style="fill: var(--color1, #ff868e)" d="M10.454 16.61c0-3.4 2.756-6.156 6.156-6.156h9.234c3.4 0 6.156 2.756 6.156 6.156s-2.756 6.156-6.156 6.156h-9.234c-3.4 0-6.156-2.756-6.156-6.156z"></path>
<path fill="#ff868e" style="fill: var(--color1, #ff868e)" d="M16.61 32c-3.4 0-6.156-2.756-6.156-6.156v-9.234c0-3.4 2.756-6.156 6.156-6.156s6.156 2.756 6.156 6.156v9.234c0 3.4-2.756 6.156-6.156 6.156z"></path>
<path fill="#ff868e" style="fill: var(--color1, #ff868e)" d="M15.39 3.847c0 2.125-1.723 3.847-3.847 3.847s-3.847-1.723-3.847-3.847 1.723-3.847 3.847-3.847c2.125 0 3.847 1.723 3.847 3.847z"></path>
<path fill="#ff868e" style="fill: var(--color1, #ff868e)" d="M7.695 22.315c0 2.125-1.723 3.847-3.847 3.847s-3.847-1.723-3.847-3.847c0-2.125 1.723-3.847 3.847-3.847s3.847 1.723 3.847 3.847z"></path>
<path fill="#ff868e" style="fill: var(--color1, #ff868e)" d="M26.162 3.847c0 2.125-1.723 3.847-3.847 3.847s-3.847-1.723-3.847-3.847c0-2.125 1.723-3.847 3.847-3.847s3.847 1.723 3.847 3.847z"></path>
<path fill="#ff868e" style="fill: var(--color1, #ff868e)" d="M7.695 11.542c0 2.125-1.723 3.847-3.847 3.847s-3.847-1.723-3.847-3.847c0-2.125 1.723-3.847 3.847-3.847s3.847 1.723 3.847 3.847z"></path>
</symbol>
<symbol id="day-mode-icon" viewBox="0 0 32 32">
<path fill="#ff868e" style="fill: var(--color1, #ff868e)" d="M2.234 16c0.001-0.001 0.001-0.002 0.002-0.004 0.127-0.27 0.324-0.663 0.592-1.137 0.539-0.95 1.362-2.217 2.498-3.479 2.271-2.523 5.737-4.98 10.674-4.98s8.403 2.457 10.674 4.98c1.136 1.262 1.96 2.528 2.498 3.479 0.269 0.474 0.465 0.867 0.592 1.137 0 0.001 0.001 0.002 0.002 0.003-0.001 0.001-0.001 0.002-0.002 0.003-0.128 0.27-0.324 0.663-0.592 1.137-0.539 0.951-1.362 2.217-2.498 3.479-2.271 2.523-5.737 4.98-10.674 4.98s-8.403-2.457-10.674-4.98c-1.136-1.263-1.96-2.529-2.498-3.479-0.269-0.474-0.465-0.867-0.592-1.137-0.001-0.001-0.001-0.002-0.002-0.003zM30.933 16c0.99-0.396 0.99-0.397 0.99-0.397l-0.001-0.001-0.001-0.003-0.004-0.009-0.012-0.030c-0.010-0.025-0.025-0.060-0.044-0.104-0.038-0.088-0.094-0.213-0.168-0.369-0.148-0.313-0.368-0.754-0.666-1.279-0.595-1.049-1.505-2.45-2.769-3.854-2.529-2.81-6.529-5.686-12.259-5.686s-9.73 2.876-12.259 5.686c-1.264 1.404-2.174 2.805-2.768 3.854-0.298 0.526-0.518 0.966-0.666 1.279-0.074 0.157-0.129 0.281-0.168 0.369-0.019 0.044-0.034 0.079-0.044 0.104l-0.012 0.030-0.004 0.009-0.002 0.004c-0 0.001-0 0.001 0.99 0.397l-0.99-0.396c-0.102 0.254-0.102 0.538 0 0.792l0.99-0.396c-0.99 0.396-0.99 0.397-0.99 0.397l0 0.001 0.001 0.003 0.004 0.009 0.012 0.030c0.010 0.025 0.025 0.060 0.044 0.104 0.038 0.088 0.094 0.213 0.168 0.369 0.148 0.313 0.368 0.754 0.666 1.279 0.595 1.050 1.505 2.45 2.768 3.854 2.529 2.81 6.529 5.686 12.259 5.686s9.73-2.876 12.259-5.686c1.264-1.404 2.174-2.805 2.769-3.854 0.298-0.526 0.518-0.966 0.666-1.279 0.074-0.157 0.129-0.281 0.168-0.369 0.019-0.044 0.034-0.079 0.044-0.104l0.012-0.030 0.004-0.009 0.001-0.003 0.001-0.001c0-0 0-0.001-0.99-0.397zM30.933 16l0.99-0.396c0.102 0.254 0.102 0.538 0 0.792l-0.99-0.396zM10.667 16c0-2.946 2.388-5.333 5.333-5.333s5.333 2.388 5.333 5.333c0 2.946-2.388 5.333-5.333 5.333s-5.333-2.388-5.333-5.333zM16 12.8c-1.767 0-3.2 1.433-3.2 3.2s1.433 3.2 3.2 3.2c1.767 0 3.2-1.433 3.2-3.2s-1.433-3.2-3.2-3.2z"></path>
</symbol>
<symbol id="night-mode-icon" viewBox="0 0 57 32">
<path fill="#ff868e" style="fill: var(--color1, #ff868e)" d="M9.468 11.058c4.037 4.486 10.2 8.854 18.976 8.854s14.939-4.368 18.976-8.854c2.020-2.244 3.483-4.495 4.441-6.185 0.478-0.843 0.827-1.541 1.053-2.022 0.113-0.24 0.196-0.426 0.249-0.547 0.026-0.061 0.045-0.106 0.057-0.133l0.012-0.028c0 0.001 0.001-0.002 1.761 0.703s1.76 0.705 1.76 0.706l-0.003 0.008-0.006 0.016-0.022 0.053c-0.018 0.044-0.044 0.106-0.078 0.184-0.068 0.156-0.166 0.378-0.298 0.656-0.262 0.556-0.654 1.34-1.184 2.274-1.057 1.866-2.675 4.356-4.922 6.852-0.694 0.771-1.449 1.544-2.269 2.301l6.467 6.467-2.682 2.682-6.731-6.731c-3.822 2.77-8.682 4.947-14.684 5.33l0 7.645-3.793 0-0-7.645c-6.002-0.383-10.861-2.561-14.683-5.33l-6.731 6.731-2.682-2.682 6.467-6.467c-0.82-0.757-1.576-1.53-2.269-2.301-2.247-2.496-3.865-4.986-4.922-6.852-0.53-0.935-0.922-1.718-1.184-2.274-0.131-0.278-0.23-0.5-0.298-0.656-0.034-0.078-0.060-0.14-0.078-0.184l-0.022-0.053-0.007-0.016-0.002-0.006c-0-0.001-0.002-0.004 1.759-0.708s1.76-0.705 1.76-0.706l0.013 0.031c0.011 0.028 0.030 0.072 0.057 0.133 0.053 0.122 0.135 0.307 0.248 0.547 0.227 0.481 0.575 1.179 1.053 2.022 0.958 1.69 2.421 3.941 4.441 6.185zM3.656 2.139c-0-0-0-0 0 0z"></path>
</symbol>
<symbol id="open-menu" viewBox="0 0 53 32">
<path fill="#ff868e" style="fill: var(--color1, #ff868e)" d="M53.333 3.556h-53.333v-3.556h53.333v3.556zM53.333 17.778h-53.333v-3.556h53.333v3.556zM53.333 32h-53.333v-3.556h53.333v3.556z"></path>
</symbol>
<symbol id="dropdown-12" viewBox="0 0 32 32">
<path fill="#8c8c8c" style="fill: var(--color1, #8c8c8c)" d="M17.584 24.464l13.759-13.76c0.875-0.875 0.875-2.294 0-3.169s-2.294-0.875-3.169 0l-12.175 12.175-12.174-12.175c-0.875-0.875-2.294-0.875-3.169 0s-0.875 2.294 0 3.169l13.759 13.76c0.438 0.438 1.011 0.656 1.584 0.656s1.147-0.219 1.584-0.656z"></path>
</symbol>
<symbol id="upload-16" viewBox="0 0 32 32">
<path fill="#ff868e" style="fill: var(--color2, #ff868e)" d="M15.732 0l8.739 8.067-1.645 1.782-5.847-5.398v20.272h-2.425v-20.114l-5.206 5.206-1.715-1.715 8.1-8.1zM2.425 29.575v-14.553h-2.425v16.978h31.531v-16.978h-2.425v14.553h-26.68z"></path>
</symbol>
<symbol id="loading-16" viewBox="0 0 32 32">
<path stroke-linejoin="miter" stroke-linecap="butt" stroke-miterlimit="4" stroke-width="4" d="M30 16c0 7.732-6.268 14-14 14s-14-6.268-14-14c0-7.732 6.268-14 14-14s14 6.268 14 14z"></path>
</symbol>
<symbol id="update-20" viewBox="0 0 32 32">
<path fill="#ff868e" style="fill: var(--color2, #ff868e)" d="M15.171 4l-2.477-2.475 1.524-1.525 5.074 5.071-5.074 5.071-1.524-1.525 2.461-2.46c-6.336 0.24-11.4 5.451-11.4 11.839 0 6.541 5.309 11.848 11.856 11.848s11.856-5.307 11.856-11.848v-1.078h2.156v1.078c0 7.733-6.276 14.004-14.012 14.004s-14.012-6.27-14.012-14.004c0-7.586 6.038-13.764 13.571-13.997z"></path>
</symbol>
<symbol id="fav-color-20" viewBox="0 0 32 32">
<path fill="#ff868e" style="fill: var(--color2, #ff868e)" d="M8.609 1.6c-4.755 0-8.609 3.854-8.609 8.609 0 2.283 0.907 4.473 2.522 6.087l12.724 12.724c0.417 0.416 1.092 0.416 1.508 0l12.724-12.724c1.615-1.614 2.522-3.804 2.522-6.088 0-4.755-3.854-8.609-8.609-8.609-2.283 0-4.473 0.907-6.088 2.522l-1.303 1.303-1.303-1.303c-1.615-1.615-3.804-2.522-6.088-2.522z"></path>
</symbol>
<symbol id="fav-20" viewBox="0 0 32 32">
<path fill="#ff868e" style="fill: var(--color2, #ff868e)" d="M8.609 3.733c-3.576 0-6.476 2.899-6.476 6.476 0 1.717 0.682 3.365 1.897 4.579l11.97 11.97 11.97-11.97c1.214-1.214 1.897-2.862 1.897-4.579 0-3.576-2.899-6.476-6.476-6.476-1.717 0-3.365 0.682-4.579 1.897l-2.058 2.058c-0.416 0.417-1.092 0.417-1.508 0l-2.058-2.058c-1.214-1.214-2.862-1.897-4.579-1.897zM0 10.209c0-4.755 3.854-8.609 8.609-8.609 2.283 0 4.473 0.907 6.088 2.522l1.303 1.303 1.303-1.303c1.614-1.615 3.804-2.522 6.088-2.522 4.755 0 8.609 3.854 8.609 8.609 0 2.283-0.907 4.473-2.522 6.087l-12.724 12.724c-0.416 0.416-1.092 0.416-1.508 0l-12.724-12.724c-1.615-1.614-2.522-3.804-2.522-6.088z"></path>
</symbol>
<symbol id="close-20" viewBox="0 0 32 32">
<path fill="#ff868e" style="fill: var(--color2, #ff868e)" d="M14.491 16l-12.046-12.046 1.508-1.508 12.046 12.046 12.046-12.046 1.508 1.508-12.046 12.046 12.046 12.046-1.508 1.508-12.046-12.046-12.046 12.046-1.508-1.508 12.046-12.046z"></path>
</symbol>
<symbol id="search-20" viewBox="0 0 32 32">
<path fill="#ff868e" style="fill: var(--color2, #ff868e)" d="M30.978 29.147l-7.616-7.921c1.958-2.328 3.031-5.257 3.031-8.306 0-7.124-5.796-12.92-12.92-12.92s-12.92 5.796-12.92 12.92c0 7.124 5.796 12.92 12.92 12.92 2.674 0 5.223-0.807 7.402-2.338l7.674 7.981c0.321 0.333 0.752 0.517 1.214 0.517 0.438 0 0.853-0.167 1.168-0.47 0.67-0.644 0.691-1.713 0.047-2.383zM13.473 3.37c5.266 0 9.55 4.284 9.55 9.55s-4.284 9.55-9.55 9.55-9.55-4.284-9.55-9.55c0-5.266 4.284-9.55 9.55-9.55z"></path>
</symbol>
<symbol id="back-20" viewBox="0 0 32 32">
<path fill="#ff868e" style="fill: var(--color2, #ff868e)" d="M7.536 17.584l13.76 13.759c0.875 0.876 2.294 0.876 3.169 0s0.875-2.294 0-3.169l-12.175-12.175 12.175-12.174c0.875-0.875 0.875-2.294 0-3.169s-2.294-0.875-3.169 0l-13.76 13.759c-0.437 0.438-0.656 1.011-0.656 1.584s0.219 1.147 0.656 1.584z"></path>
</symbol>
<symbol id="error-20" viewBox="0 0 32 32">
<path fill="#ff868e" style="fill: var(--color2, #ff868e)" d="M0 16c0-8.837 7.163-16 16-16s16 7.163 16 16c0 8.836-7.164 16-16 16s-16-7.164-16-16zM16 2.133c-7.658 0-13.867 6.208-13.867 13.867s6.208 13.867 13.867 13.867c7.658 0 13.867-6.208 13.867-13.867s-6.208-13.867-13.867-13.867zM14.492 16l-5.646-5.646 1.508-1.508 5.646 5.646 5.646-5.646 1.508 1.508-5.646 5.646 5.646 5.646-1.508 1.508-5.646-5.646-5.646 5.646-1.508-1.508 5.646-5.646z"></path>
</symbol>
<symbol id="success-20" viewBox="0 0 32 32">
<path fill="#97eab9" style="fill: var(--color3, #97eab9)" d="M0 16c0-8.837 7.163-16 16-16s16 7.163 16 16c0 8.836-7.164 16-16 16s-16-7.164-16-16zM16 2.133c-7.658 0-13.867 6.208-13.867 13.867s6.208 13.867 13.867 13.867c7.658 0 13.867-6.208 13.867-13.867s-6.208-13.867-13.867-13.867zM24.3 11.333l-9.213 11.516-7.236-6.030 1.366-1.639 5.564 4.637 7.854-9.817 1.666 1.333z"></path>
</symbol>
<symbol id="dislike-color-20" viewBox="0 0 32 32">
<path fill="#ffd280" style="fill: var(--color4, #ffd280)" d="M0 16c0-8.837 7.163-16 16-16s16 7.163 16 16c0 8.836-7.164 16-16 16s-16-7.164-16-16zM16 2.133c-7.658 0-13.867 6.208-13.867 13.867s6.208 13.867 13.867 13.867c7.658 0 13.867-6.208 13.867-13.867s-6.208-13.867-13.867-13.867zM10.667 12.8h-2.133v-2.133h2.133v2.133zM23.467 12.8h-2.133v-2.133h2.133v2.133zM8.107 21.547l0.64-0.853c3.627-4.835 10.88-4.835 14.507 0l0.64 0.853-1.707 1.28-0.64-0.853c-2.773-3.698-8.32-3.698-11.093 0l-0.64 0.853-1.707-1.28z"></path>
</symbol>
<symbol id="like-color-20" viewBox="0 0 32 32">
<path fill="#97eab9" style="fill: var(--color3, #97eab9)" d="M0 16c0-8.837 7.163-16 16-16s16 7.163 16 16c0 8.836-7.164 16-16 16s-16-7.164-16-16zM16 2.133c-7.658 0-13.867 6.208-13.867 13.867s6.208 13.867 13.867 13.867c7.658 0 13.867-6.208 13.867-13.867s-6.208-13.867-13.867-13.867zM10.667 12.8h-2.133v-2.133h2.133v2.133zM23.467 12.8h-2.133v-2.133h2.133v2.133zM9.813 17.707l0.64 0.853c2.773 3.698 8.32 3.698 11.093 0l0.64-0.853 1.707 1.28-0.64 0.853c-3.627 4.836-10.88 4.836-14.507 0l-0.64-0.853 1.707-1.28z"></path>
</symbol>
<symbol id="soft-revert-20" viewBox="0 0 32 32">
<path fill="#8c8c8c" style="fill: var(--color1, #8c8c8c)" d="M6.088 28.358v-28.358h2.133v28.358l4.579-4.579 1.508 1.508-6.4 6.4c-0.2 0.2-0.471 0.312-0.754 0.312s-0.554-0.112-0.754-0.312l-6.4-6.4 1.508-1.508 4.579 4.579zM24.221 2.133c-1.767 0-3.2 1.433-3.2 3.2v3.2h6.4v-3.2c0-1.767-1.433-3.2-3.2-3.2zM27.421 10.667v4.267h2.133v-9.6c0-2.946-2.388-5.333-5.333-5.333s-5.333 2.388-5.333 5.333v9.6h2.133v-4.267h6.4zM18.888 17.067h6.4c2.356 0 4.267 1.91 4.267 4.267 0 1.274-0.559 2.418-1.444 3.2 0.886 0.782 1.444 1.926 1.444 3.2 0 2.356-1.91 4.267-4.267 4.267h-6.4v-14.933zM25.288 23.467c1.178 0 2.133-0.955 2.133-2.133s-0.955-2.133-2.133-2.133h-4.267v4.267h4.267zM21.021 25.6h4.267c1.178 0 2.133 0.955 2.133 2.133s-0.955 2.133-2.133 2.133h-4.267v-4.267z"></path>
</symbol>
<symbol id="sort-20" viewBox="0 0 32 32">
<path fill="#8c8c8c" style="fill: var(--color1, #8c8c8c)" d="M6.4 0.312c0.417-0.417 1.092-0.417 1.508 0l6.4 6.4-1.508 1.508-4.579-4.579v28.358h-2.133v-28.358l-4.579 4.579-1.508-1.508 6.4-6.4zM24.221 2.133c-1.767 0-3.2 1.433-3.2 3.2v3.2h6.4v-3.2c0-1.767-1.433-3.2-3.2-3.2zM27.421 10.667v4.267h2.133v-9.6c0-2.946-2.388-5.333-5.333-5.333s-5.333 2.388-5.333 5.333v9.6h2.133v-4.267h6.4zM18.888 17.067h6.4c2.356 0 4.267 1.91 4.267 4.267 0 1.274-0.559 2.418-1.444 3.2 0.886 0.782 1.444 1.926 1.444 3.2 0 2.356-1.91 4.267-4.267 4.267h-6.4v-14.933zM25.288 23.467c1.178 0 2.133-0.955 2.133-2.133s-0.955-2.133-2.133-2.133h-4.267v4.267h4.267zM21.021 25.6h4.267c1.178 0 2.133 0.955 2.133 2.133s-0.955 2.133-2.133 2.133h-4.267v-4.267z"></path>
</symbol>
<symbol id="fav-color-30" viewBox="0 0 32 32">
<path fill="#ff868e" style="fill: var(--color2, #ff868e)" d="M8.609 2.133c-4.755 0-8.609 3.854-8.609 8.609 0 2.283 0.907 4.473 2.522 6.088l12.724 12.724c0.417 0.417 1.092 0.417 1.508 0l12.724-12.724c1.615-1.614 2.522-3.804 2.522-6.088 0-4.755-3.854-8.609-8.609-8.609-2.283 0-4.473 0.907-6.088 2.522l-1.303 1.303-1.303-1.303c-1.614-1.615-3.804-2.522-6.088-2.522z"></path>
</symbol>
<symbol id="dislike-30" viewBox="0 0 32 32">
<path fill="#ff868e" style="fill: var(--color2, #ff868e)" d="M0 16c0-8.837 7.163-16 16-16s16 7.163 16 16c0 8.837-7.163 16-16 16s-16-7.163-16-16zM16 2.133c-7.658 0-13.867 6.208-13.867 13.867s6.208 13.867 13.867 13.867c7.658 0 13.867-6.208 13.867-13.867s-6.208-13.867-13.867-13.867zM10.667 12.8h-2.133v-2.133h2.133v2.133zM23.467 12.8h-2.133v-2.133h2.133v2.133zM8.107 21.547l0.64-0.853c3.627-4.836 10.88-4.836 14.507 0l0.64 0.853-1.707 1.28-0.64-0.853c-2.773-3.698-8.32-3.698-11.093 0l-0.64 0.853-1.707-1.28z"></path>
</symbol>
<symbol id="fav-30" viewBox="0 0 32 32">
<path fill="#ff868e" style="fill: var(--color2, #ff868e)" d="M8.609 4.267c-3.576 0-6.476 2.899-6.476 6.476 0 1.717 0.682 3.365 1.897 4.579l11.97 11.97 11.97-11.97c1.215-1.214 1.897-2.862 1.897-4.579 0-3.577-2.899-6.476-6.476-6.476-1.717 0-3.365 0.682-4.579 1.897l-2.058 2.058c-0.417 0.417-1.092 0.417-1.508 0l-2.057-2.058c-1.214-1.214-2.862-1.897-4.579-1.897zM0 10.742c0-4.755 3.854-8.609 8.609-8.609 2.283 0 4.473 0.907 6.088 2.522l1.303 1.303 1.303-1.303c1.614-1.615 3.804-2.522 6.088-2.522 4.755 0 8.609 3.854 8.609 8.609 0 2.283-0.907 4.473-2.522 6.088l-12.724 12.724c-0.417 0.417-1.092 0.417-1.508 0l-12.724-12.724c-1.615-1.614-2.522-3.804-2.522-6.088z"></path>
</symbol>
<symbol id="like-30" viewBox="0 0 32 32">
<path fill="#ff868e" style="fill: var(--color2, #ff868e)" d="M0 16c0-8.837 7.163-16 16-16s16 7.163 16 16c0 8.837-7.163 16-16 16s-16-7.163-16-16zM16 2.133c-7.658 0-13.867 6.208-13.867 13.867s6.208 13.867 13.867 13.867c7.658 0 13.867-6.208 13.867-13.867s-6.208-13.867-13.867-13.867zM10.667 12.8h-2.133v-2.133h2.133v2.133zM23.467 12.8h-2.133v-2.133h2.133v2.133zM9.813 17.707l0.64 0.853c2.773 3.698 8.32 3.698 11.093 0l0.64-0.853 1.707 1.28-0.64 0.853c-3.627 4.836-10.88 4.836-14.507 0l-0.64-0.853 1.707-1.28z"></path>
</symbol>
<symbol id="logo-paw" viewBox="0 0 32 32">
<path fill="#ff868e" style="fill: var(--color2, #ff868e)" d="M10.454 16.61c0-3.4 2.756-6.156 6.156-6.156h9.234c3.4 0 6.156 2.756 6.156 6.156s-2.756 6.156-6.156 6.156h-9.234c-3.4 0-6.156-2.756-6.156-6.156z"></path>
<path fill="#ff868e" style="fill: var(--color2, #ff868e)" d="M16.61 32c-3.4 0-6.156-2.756-6.156-6.156v-9.234c0-3.4 2.756-6.156 6.156-6.156s6.156 2.756 6.156 6.156v9.234c0 3.4-2.756 6.156-6.156 6.156z"></path>
<path fill="#ff868e" style="fill: var(--color2, #ff868e)" d="M15.39 3.847c0 2.125-1.723 3.847-3.847 3.847s-3.847-1.723-3.847-3.847 1.723-3.847 3.847-3.847c2.125 0 3.847 1.723 3.847 3.847z"></path>
<path fill="#ff868e" style="fill: var(--color2, #ff868e)" d="M7.695 22.315c0 2.125-1.723 3.847-3.847 3.847s-3.847-1.723-3.847-3.847c0-2.125 1.723-3.847 3.847-3.847s3.847 1.723 3.847 3.847z"></path>
<path fill="#ff868e" style="fill: var(--color2, #ff868e)" d="M26.162 3.847c0 2.125-1.723 3.847-3.847 3.847s-3.847-1.723-3.847-3.847c0-2.125 1.723-3.847 3.847-3.847s3.847 1.723 3.847 3.847z"></path>
<path fill="#ff868e" style="fill: var(--color2, #ff868e)" d="M7.695 11.542c0 2.125-1.723 3.847-3.847 3.847s-3.847-1.723-3.847-3.847c0-2.125 1.723-3.847 3.847-3.847s3.847 1.723 3.847 3.847z"></path>
</symbol>
</defs>
</svg>
